AKA: World Invasion: Battle Los Angeles, World Invasion: Battle LA, Battle: LA 

A Marine Staff Sergeant who has just had his retirement approved goes back into the line of duty in order to assist a 2nd Lieutenant and his platoon as they fight to reclaim the city of Los Angeles from alien invaders...
 
http://www.imdb.com/title/tt1217613/

Subs: Dutch.


Al jaren worden er over de hele wereld ufo’s waargenomen en gedocumenteerd: Buenos Aires, Seoul, Frankrijk, Duitsland, China. Maar in 2011 worden die vage waarnemingen keiharde werkelijkheid wanneer de aarde wordt aangevallen door onbekende krachten. Terwijl overal ter wereld grote steden worden verwoest, houdt alleen Los Angeles nog stand in een strijd die nooit voor mogelijk werd gehouden. Een sergeant van de Marine (Aaron Eckhart) en zijn nieuwe peloton moeten een halt zien toe te roepen aan een vijand die alles overtreft waar ze ooit tegen hebben gestreden...
 
http://www.moviemeter.nl/film/68047

Subs: Nederlands.

General
Complete name                    : Battle Los Angeles-AC3-XviD-BRRip 2011.avi
Format                           : AVI
Format/Info                      : Audio Video Interleave
File size                        : 1.75 GiB
Duration                         : 1h 56mn
Overall bit rate                 : 2 162 Kbps
Writing application              : VirtualDubMod 1.5.4.1 (build 2178/release)
Writing library                  : VirtualDubMod build 2178/release

Video
ID                               : 0
Format                           : MPEG-4 Visual
Format profile                   : Simple@L3
Format settings, BVOP            : No
Format settings, QPel            : No
Format settings, GMC             : No warppoints
Format settings, Matrix          : Default (H.263)
Codec ID                         : XVID
Codec ID/Hint                    : XviD
Duration                         : 1h 56mn
Bit rate                         : 1 705 Kbps
Width                            : 720 pixels
Height                           : 304 pixels
Display aspect ratio             : 2.35:1
Frame rate                       : 23.976 fps
Resolution                       : 8 bits
Colorimetry                      : 4:2:0
Scan type                        : Progressive
Bits/(Pixel*Frame)               : 0.325
Stream size                      : 1.38 GiB (79%)
Writing library                  : XviD 1.1.2 (UTC 2006-11-01)

Audio
ID                               : 1
Format                           : AC-3
Format/Info                      : Audio Coding 3
Codec ID                         : 2000
Duration                         : 1h 56mn
Bit rate mode                    : Constant
Bit rate                         : 448 Kbps
Channel(s)                       : 6 channels
Channel positions                : Front: L C R, Surround: L R, LFE
Sampling rate                    : 48.0 KHz
Stream size                      : 372 MiB (21%)
Alignment                        : Split accross interleaves
Interleave, duration             : 42 ms (1.00 video frame)
Interleave, preload duration     : 500 ms

Enjoy..

TBS.

Thanks to Simply ReleaseS Toppers.